<svg width="24" height="24" viewBox="0 0 24 24" fill="none" xmlns="http://www.w3.org/2000/svg">
<path d="M12 0C5.37 0 0 5.37 0 12C0 17.3 3.438 21.82 8.205 23.47C8.805 23.58 9.025 23.21 9.025 22.91C9.025 22.65 9.015 21.78 9.015 20.81C5.66 21.52 4.96 19.23 4.96 19.23C4.415 17.85 3.63 17.5 3.63 17.5C2.51 16.74 3.71 16.75 3.71 16.75C4.93 16.84 5.58 17.95 5.58 17.95C6.62 19.72 8.33 19.21 9.01 18.91C9.12 18.15 9.45 17.64 9.81 17.37C7.15 17.07 4.34 16.03 4.34 11.37C4.34 10.06 4.81 8.99 5.58 8.15C5.45 7.84 5.01 6.65 5.69 4.98C5.69 4.98 6.73 4.64 8.99 6.18C10.01 5.88 11.03 5.73 12.05 5.73C13.07 5.73 14.09 5.88 15.11 6.18C17.37 4.63 18.41 4.98 18.41 4.98C19.09 6.65 18.65 7.84 18.52 8.15C19.29 8.99 19.76 10.06 19.76 11.37C19.76 16.04 16.95 17.07 14.29 17.37C14.73 17.74 15.15 18.48 15.15 19.62C15.15 21.28 15.14 22.62 15.14 22.91C15.14 23.21 15.36 23.58 15.96 23.47C20.73 21.82 24.17 17.3 24.17 12C24 5.37 18.63 0 12 0Z" fill="#FFFFFF"/>
</svg>
